<svg width="512" height="512" viewBox="0 0 512 512" fill="none" xmlns="http://www.w3.org/2000/svg">
<rect width="512" height="512" rx="145" fill="#204131"/>
<path d="M144.232 195.108C145.99 195.108 147.577 195.816 148.993 197.232C150.458 198.6 151.19 200.138 151.19 201.847C151.19 203.214 150.946 204.386 150.458 205.362C148.017 210.733 144.55 215.738 140.058 220.377C135.614 224.967 130.316 228.653 124.164 231.437C118.012 234.22 111.103 235.611 103.437 235.611C95.8682 235.611 89.0322 234.171 82.9287 231.29C76.8252 228.409 71.6006 224.479 67.2549 219.498C62.958 214.469 59.6377 208.707 57.2939 202.213C54.999 195.67 53.8516 188.761 53.8516 181.485C53.8516 174.308 55.0234 167.472 57.3672 160.978C59.7109 154.483 63.0557 148.746 67.4014 143.766C71.7471 138.736 76.9473 134.781 83.002 131.9C89.0566 129.02 95.7949 127.579 103.217 127.579C110.736 127.579 117.548 128.922 123.651 131.607C129.804 134.244 135.126 137.784 139.618 142.228C144.159 146.622 147.699 151.456 150.238 156.729C150.775 157.755 151.044 158.829 151.044 159.952C151.044 161.759 150.385 163.419 149.066 164.933C147.797 166.397 146.308 167.13 144.599 167.13C142.938 167.13 141.425 166.788 140.058 166.104C138.739 165.372 137.738 164.298 137.055 162.882C134.32 157.218 130.023 152.359 124.164 148.307C118.354 144.254 111.371 142.228 103.217 142.228C96.1367 142.228 89.9844 144.034 84.7598 147.647C79.584 151.261 75.5801 156.07 72.748 162.076C69.916 168.033 68.5 174.552 68.5 181.632C68.5 188.761 69.8916 195.304 72.6748 201.261C75.5068 207.218 79.5107 211.979 84.6865 215.543C89.9111 219.107 96.1123 220.89 103.29 220.89C108.661 220.89 113.568 219.913 118.012 217.96C122.504 215.958 126.386 213.321 129.657 210.05C132.929 206.778 135.419 203.263 137.128 199.503C138.446 196.573 140.814 195.108 144.232 195.108ZM238.935 228.727C238.935 230.631 238.227 232.291 236.811 233.707C235.443 235.074 233.954 235.758 232.343 235.758C230.976 235.758 229.779 235.27 228.754 234.293C227.729 233.365 227.021 232.657 226.63 232.169C222.187 229.044 218.329 225.504 215.058 221.549C211.835 217.545 209.076 213.199 206.781 208.512C204.779 204.312 202.729 201.041 200.629 198.697C198.578 196.354 196.088 194.693 193.158 193.717C190.229 192.74 186.42 192.228 181.732 192.179L175.067 192.105L175.141 227.555V227.701C175.141 229.654 174.408 231.363 172.943 232.828C171.527 234.293 169.818 235.025 167.816 235.025C165.814 235.025 164.081 234.244 162.616 232.682C161.2 231.119 160.492 229.264 160.492 227.115L160.272 136.222C160.272 134.171 160.98 132.462 162.396 131.095C163.861 129.679 165.57 128.946 167.523 128.897L187.006 128.824H188.69C197.089 128.824 204.584 130.069 211.176 132.56C217.768 135.001 222.968 138.688 226.776 143.619C230.585 148.502 232.489 154.581 232.489 161.856C232.489 166.544 231.513 170.719 229.56 174.381C227.655 178.043 225.141 181.144 222.016 183.683C218.891 186.222 215.521 188.199 211.908 189.615C213.568 191.715 215.229 194.303 216.889 197.379C219.721 202.799 222.479 207.608 225.165 211.808C227.851 215.958 231.391 219.62 235.785 222.794C236.664 223.38 237.396 224.21 237.982 225.284C238.617 226.31 238.935 227.457 238.935 228.727ZM189.057 143.473H174.921L175.067 178.482L189.203 178.336C198.188 178.238 205.219 176.871 210.297 174.234C215.424 171.598 217.987 167.374 217.987 161.563C217.987 155.606 215.277 151.114 209.857 148.087C204.438 145.011 197.504 143.473 189.057 143.473ZM248.456 136.148C248.456 134.195 249.164 132.535 250.58 131.168C252.045 129.752 253.778 129.044 255.78 129.044L318.549 129.117H318.622C320.624 129.117 322.333 129.85 323.749 131.314C325.214 132.73 325.946 134.439 325.946 136.441C325.946 138.443 325.214 140.177 323.749 141.642C322.333 143.058 320.624 143.766 318.622 143.766H318.549L263.104 143.692L263.178 173.722L312.543 174.088C314.643 174.088 316.376 174.82 317.743 176.285C319.159 177.75 319.867 179.63 319.867 181.925C319.867 183.878 319.11 185.538 317.597 186.905C316.083 188.224 314.398 188.883 312.543 188.883H312.47L263.251 188.517L263.324 219.498L318.549 219.425H318.622C320.624 219.425 322.333 220.157 323.749 221.622C325.214 223.038 325.946 224.747 325.946 226.749C325.946 228.751 325.214 230.484 323.749 231.949C322.333 233.365 320.624 234.073 318.622 234.073H318.549L256 234.146C253.998 234.146 252.265 233.438 250.8 232.022C249.384 230.558 248.676 228.849 248.676 226.896L248.456 136.148ZM389.228 132.926C389.667 131.559 390.546 130.411 391.864 129.483C393.231 128.556 394.672 128.092 396.186 128.092C397.846 128.092 399.311 128.604 400.58 129.63C401.898 130.655 402.753 131.852 403.144 133.219L425.629 204.85L445.624 135.929C446.015 133.878 446.869 132.12 448.188 130.655C449.555 129.142 451.068 128.385 452.729 128.385C454.828 128.385 456.562 129.264 457.929 131.021C459.345 132.779 460.053 134.854 460.053 137.247C460.053 138.224 459.931 139.078 459.687 139.811L433.1 230.118C432.66 231.583 431.781 232.804 430.463 233.78C429.145 234.708 427.704 235.172 426.142 235.172C424.677 235.172 423.236 234.732 421.82 233.854C420.453 232.926 419.55 231.754 419.11 230.338L395.966 163.907L371.503 232.535C370.722 233.316 369.745 233.951 368.573 234.439C367.45 234.928 366.107 235.172 364.545 235.172C362.982 235.172 361.518 234.708 360.15 233.78C358.783 232.804 357.88 231.583 357.44 230.118L331.806 140.763C331.61 139.981 331.513 139.127 331.513 138.199C331.513 135.807 332.196 133.731 333.563 131.974C334.979 130.216 336.737 129.337 338.837 129.337C340.546 129.337 342.06 130.118 343.378 131.681C344.745 133.194 345.6 134.977 345.941 137.027L365.204 205.289L389.228 132.926ZM141.229 282.926C141.669 281.559 142.548 280.411 143.866 279.483C145.233 278.556 146.674 278.092 148.188 278.092C149.848 278.092 151.312 278.604 152.582 279.63C153.9 280.655 154.755 281.852 155.146 283.219L177.631 354.85L197.626 285.929C198.017 283.878 198.871 282.12 200.189 280.655C201.557 279.142 203.07 278.385 204.73 278.385C206.83 278.385 208.563 279.264 209.931 281.021C211.347 282.779 212.055 284.854 212.055 287.247C212.055 288.224 211.933 289.078 211.688 289.811L185.102 380.118C184.662 381.583 183.783 382.804 182.465 383.78C181.146 384.708 179.706 385.172 178.144 385.172C176.679 385.172 175.238 384.732 173.822 383.854C172.455 382.926 171.552 381.754 171.112 380.338L147.968 313.907L123.505 382.535C122.724 383.316 121.747 383.951 120.575 384.439C119.452 384.928 118.109 385.172 116.547 385.172C114.984 385.172 113.52 384.708 112.152 383.78C110.785 382.804 109.882 381.583 109.442 380.118L83.8076 290.763C83.6123 289.981 83.5146 289.127 83.5146 288.199C83.5146 285.807 84.1982 283.731 85.5654 281.974C86.9814 280.216 88.7393 279.337 90.8389 279.337C92.5479 279.337 94.0615 280.118 95.3799 281.681C96.7471 283.194 97.6016 284.977 97.9434 287.027L117.206 355.289L141.229 282.926ZM228.681 384.732C226.679 384.732 224.945 384.024 223.48 382.608C222.064 381.144 221.356 379.41 221.356 377.408L221.283 285.782C221.283 283.927 221.967 282.242 223.334 280.729C224.701 279.215 226.337 278.458 228.241 278.458C230.487 278.458 232.318 279.166 233.734 280.582C235.199 281.949 235.932 283.683 235.932 285.782L236.005 377.408C236.005 379.41 235.272 381.144 233.808 382.608C232.392 384.024 230.683 384.732 228.681 384.732ZM245.233 286.515C245.233 284.513 245.941 282.804 247.357 281.388C248.822 279.923 250.556 279.19 252.558 279.19H252.631L325.8 278.751H325.946C327.948 278.751 329.657 279.483 331.073 280.948C332.538 282.364 333.271 284.073 333.271 286.075C333.271 288.077 332.538 289.811 331.073 291.275C329.657 292.691 327.948 293.399 325.946 293.399H325.873L296.723 293.546L296.356 377.628V377.701C296.356 379.654 295.624 381.339 294.159 382.755C292.743 384.171 291.034 384.879 289.032 384.879C287.03 384.879 285.297 384.171 283.832 382.755C282.416 381.339 281.708 379.654 281.708 377.701V377.555L282.074 293.619L252.631 293.839H252.558C250.556 293.839 248.822 293.131 247.357 291.715C245.941 290.25 245.233 288.517 245.233 286.515ZM340.595 283.731C340.595 281.827 341.376 280.289 342.938 279.117C344.501 277.945 346.015 277.359 347.479 277.359C349.53 277.408 351.337 278.067 352.899 279.337C354.462 280.606 355.243 282.315 355.243 284.464L355.316 325.626L410.102 325.553L410.175 284.464C410.028 282.511 410.688 280.851 412.152 279.483C413.666 278.067 415.424 277.359 417.426 277.359C419.428 277.359 421.161 278.043 422.626 279.41C424.091 280.777 424.823 282.462 424.823 284.464L424.75 377.555C424.75 379.508 424.018 381.192 422.553 382.608C421.137 383.976 419.428 384.659 417.426 384.659C415.424 384.659 413.69 384 412.226 382.682C410.81 381.314 410.102 379.654 410.102 377.701V340.348L355.39 340.421L355.463 377.774C355.463 379.776 354.755 381.461 353.339 382.828C351.923 384.195 350.189 384.879 348.139 384.879C346.137 384.879 344.403 384.195 342.938 382.828C341.522 381.412 340.814 379.728 340.814 377.774C340.766 362.247 340.717 346.72 340.668 331.192C340.668 315.616 340.644 300.064 340.595 284.537V283.731Z" fill="white"/>
</svg>
